<svg width="220" height="220" viewBox="0 0 220 220" fill="none" xmlns="http://www.w3.org/2000/svg">
<path d="M68.75 0H0V68.75H68.75V0ZM55 55H13.75V13.75H55V55Z" fill="#5B5D6B"/>
<path d="M41.25 27.5H27.5V41.25H41.25V27.5Z" fill="#5B5D6B"/>
<path d="M151.25 0V68.75H220V0H151.25ZM206.25 55H165V13.75H206.25V55Z" fill="#5B5D6B"/>
<path d="M192.5 27.5H178.75V41.25H192.5V27.5Z" fill="#5B5D6B"/>
<path d="M0 220H68.75V151.25H0V220ZM13.75 165H55V206.25H13.75V165Z" fill="#5B5D6B"/>
<path d="M41.25 178.75H27.5V192.5H41.25V178.75Z" fill="#5B5D6B"/>
<path d="M137.5 0H110V13.75H137.5V0Z" fill="#5B5D6B"/>
<path d="M110 55H123.75V41.25H137.5V27.5H96.25V13.75H82.5V27.5V34.375V41.25H110V55Z" fill="#5B5D6B"/>
<path d="M96.25 55H82.5V68.75H96.25V55Z" fill="#5B5D6B"/>
<path d="M137.5 68.75H123.75V82.5H82.5V96.25H137.5V68.75Z" fill="#5B5D6B"/>
<path d="M13.75 123.75H27.5V110H13.75V82.5H0V137.5H13.75V123.75Z" fill="#5B5D6B"/>
<path d="M41.25 82.5H27.5V96.25H41.25V82.5Z" fill="#5B5D6B"/>
<path d="M82.5 137.5H110V123.75H96.25V110H68.75V82.5H55V110H41.25V137.5H55V123.75H61.875H68.75H82.5V137.5Z" fill="#5B5D6B"/>
<path d="M137.5 110H123.75V137.5H137.5V110Z" fill="#5B5D6B"/>
<path d="M123.75 151.25H82.5V165H110V206.25H82.5V220H123.75V206.25H151.25V192.5H123.75V151.25Z" fill="#5B5D6B"/>
<path d="M96.25 178.75H82.5V192.5H96.25V178.75Z" fill="#5B5D6B"/>
<path d="M151.25 151.25H137.5V178.75H151.25V151.25Z" fill="#5B5D6B"/>
<path d="M206.25 178.75H165V220H178.75V192.5H206.25V178.75Z" fill="#5B5D6B"/>
<path d="M220 206.25H192.5V220H220V206.25Z" fill="#5B5D6B"/>
<path d="M220 151.25H206.25V165H220V151.25Z" fill="#5B5D6B"/>
<path d="M165 165H178.75V123.75H151.25V137.5H165V165Z" fill="#5B5D6B"/>
<path d="M192.5 96.25H178.75V82.5H165V96.25H151.25V110H206.25V96.25H220V82.5H192.5V96.25Z" fill="#5B5D6B"/>
<path d="M220 123.75H192.5V137.5H220V123.75Z" fill="#5B5D6B"/>
</svg>