<svg width="122" height="120" viewBox="0 0 122 120" fill="none" xmlns="http://www.w3.org/2000/svg">
<path d="M40.9834 0H0.998291V39.9597H40.9834V0ZM36.1861 35.1652H5.7956V4.79589H36.1861V35.1652Z" fill="#065ACB"/>
<path d="M11.392 10.3887H30.5812V29.5694H11.392V10.3887Z" fill="#065ACB"/>
<path d="M120.953 0H80.9683V39.9597H120.953V0ZM116.156 35.1652H85.7656V4.79589H116.156V35.1652Z" fill="#065ACB"/>
<path d="M91.3622 10.3887H110.551V29.5694H91.3622V10.3887Z" fill="#065ACB"/>
<path d="M0.998291 119.893H40.9834V79.9336H0.998291V119.893ZM5.7956 84.7281H36.1861V115.097H5.7956V84.7281Z" fill="#065ACB"/>
<path d="M11.392 90.3242H30.5812V109.505H11.392V90.3242Z" fill="#065ACB"/>
<path d="M47.6667 0.0585938H54.3305V6.72231H47.6667V0.0585938Z" fill="#065ACB"/>
<path d="M67.6878 6.68129H74.3529V0.0175781H61.024V13.345H67.6878V6.68129Z" fill="#065ACB"/>
<path d="M54.3604 13.3457H61.024V20.0094H54.3604V13.3457Z" fill="#065ACB"/>
<path d="M47.6949 26.6735V33.3372H54.3601V20.0098H47.6949V26.6735Z" fill="#065ACB"/>
<path d="M61.024 26.6719H67.6877V33.3356H61.024V26.6719Z" fill="#065ACB"/>
<path d="M67.6876 20.0098H74.3514V26.6735H67.6876V20.0098Z" fill="#065ACB"/>
<path d="M54.3604 33.3379H61.024V40.0016H54.3604V33.3379Z" fill="#065ACB"/>
<path d="M67.6876 33.3379H74.3514V40.0016H67.6876V33.3379Z" fill="#065ACB"/>
<path d="M1.04761 66.6582H7.71132V73.3219H1.04761V66.6582Z" fill="#065ACB"/>
<path d="M7.66921 53.3004V46.6367H1.00549V59.9655H14.3329V53.3004H7.66921Z" fill="#065ACB"/>
<path d="M14.3326 59.9648H20.9963V66.6285H14.3326V59.9648Z" fill="#065ACB"/>
<path d="M20.9979 66.6309V73.2945H34.3254V66.6309H27.6616H20.9979Z" fill="#065ACB"/>
<path d="M27.6615 53.3008H34.3252V59.9645H27.6615V53.3008Z" fill="#065ACB"/>
<path d="M20.9979 46.6367H27.6616V53.3004H20.9979V46.6367Z" fill="#065ACB"/>
<path d="M34.3253 59.9648H40.989V66.6285H34.3253V59.9648Z" fill="#065ACB"/>
<path d="M34.3253 46.6367H40.989V53.3004H34.3253V46.6367Z" fill="#065ACB"/>
<path d="M94.3029 53.3574H100.967V60.0211H94.3029V53.3574Z" fill="#065ACB"/>
<path d="M114.295 53.3571V46.6934H100.968V53.3571H107.632H114.295Z" fill="#065ACB"/>
<path d="M107.632 60.0234H114.296V66.6872H107.632V60.0234Z" fill="#065ACB"/>
<path d="M100.968 66.6855H107.632V73.3493H100.968V66.6855Z" fill="#065ACB"/>
<path d="M114.296 53.3574H120.959V60.0211H114.296V53.3574Z" fill="#065ACB"/>
<path d="M94.3029 99.9902H100.967V106.654H94.3029V99.9902Z" fill="#065ACB"/>
<path d="M107.632 106.656H114.296V113.32H107.632V106.656Z" fill="#065ACB"/>
<path d="M100.968 113.32H107.632V119.984H100.968V113.32Z" fill="#065ACB"/>
<path d="M114.296 99.9902H120.959V106.654H114.296V99.9902Z" fill="#065ACB"/>
<path d="M114.296 113.32H120.959V119.984H114.296V113.32Z" fill="#065ACB"/>
<path d="M47.6964 73.3066H54.3601V79.9704H47.6964V73.3066Z" fill="#065ACB"/>
<path d="M47.6539 86.6641V93.3278H60.9828V86.6641H54.3176H47.6539Z" fill="#065ACB"/>
<path d="M60.983 79.998H67.6467V86.6618H60.983V79.998Z" fill="#065ACB"/>
<path d="M74.3104 86.6641H80.9741V93.3278H74.3104V86.6641Z" fill="#065ACB"/>
<path d="M61.0238 66.6566H67.6875V53.356H61.0238V53.3278H54.401V46.6641H47.7373V53.3278H54.3601V60.0211H47.6949V66.6849H61.0238V66.6566Z" fill="#065ACB"/>
<path d="M47.7374 99.9785H54.4011V106.642H47.7374V99.9785Z" fill="#065ACB"/>
<path d="M47.6949 113.334V119.999H61.0238V113.334H54.3601H47.6949Z" fill="#065ACB"/>
<path d="M120.96 73.3493V66.6855H114.295V73.3493H107.672V80.0144H121.001V73.3493H120.96Z" fill="#065ACB"/>
<path d="M114.338 86.6797H121.002V93.3434H114.338V86.6797Z" fill="#065ACB"/>
<path d="M87.6393 79.999V79.9877H94.3863V73.3226H87.7226V73.3353H87.6802V73.3226H87.6393V66.6872H94.303V60.0234H74.3528V66.6872H80.9756V73.3353H67.6467V79.999H80.9756V86.6642H87.6393V79.999Z" fill="#065ACB"/>
<path d="M67.6467 46.6934H87.6252V53.3571H67.6467V46.6934Z" fill="#065ACB"/>
<path d="M107.632 93.3265V93.3137H107.673V80.0146H102.384V79.9863H95.7205V86.65L94.3454 86.6783H87.6803V93.2982H81.018V93.3265H80.9756V99.9789H61.024V113.335H67.6878V106.671H80.9756V113.335H74.3529V120H81.0166V119.983H87.6394V113.319H94.3031V106.655H87.6394V106.643H87.6803V99.9789H87.6394V99.9619H87.6817V93.342H100.968V99.9902H114.296V93.3265H107.632Z" fill="#065ACB"/>
</svg>
