<svg width="122" height="120" viewBox="0 0 122 120" fill="none" xmlns="http://www.w3.org/2000/svg">
<path d="M40.9834 120H0.998352V80.0403H40.9834V120ZM36.1861 84.8348H5.79566V115.204H36.1861V84.8348Z" fill="#CA9A00"/>
<path d="M11.392 109.611H30.5813V90.4306H11.392V109.611Z" fill="#CA9A00"/>
<path d="M120.953 120H80.9684V80.0403H120.953V120V120ZM116.156 84.8348H85.7657V115.204H116.156V84.8348Z" fill="#CA9A00"/>
<path d="M91.3622 109.611H110.551V90.4306H91.3622V109.611Z" fill="#CA9A00"/>
<path d="M0.998352 0.106716H40.9834V40.0664H0.998352V0.106716ZM5.79566 35.2719H36.1861V4.90262H5.79566V35.2719Z" fill="#CA9A00"/>
<path d="M11.392 29.6758H30.5813V10.495H11.392V29.6758Z" fill="#CA9A00"/>
<path d="M47.6668 119.941H54.3305V113.278H47.6668V119.941Z" fill="#CA9A00"/>
<path d="M67.6878 113.319H74.3529V119.982H61.024V106.655H67.6878V113.319Z" fill="#CA9A00"/>
<path d="M54.3605 106.654H61.0242V99.9906H54.3605V106.654Z" fill="#CA9A00"/>
<path d="M47.695 93.3265V86.6628H54.3601V99.9902H47.695V93.3265Z" fill="#CA9A00"/>
<path d="M61.024 93.3281H67.6877V86.6644H61.024V93.3281Z" fill="#CA9A00"/>
<path d="M67.6877 99.9902H74.3514V93.3265H67.6877V99.9902Z" fill="#CA9A00"/>
<path d="M54.3605 86.6621H61.0242V79.9984H54.3605V86.6621Z" fill="#CA9A00"/>
<path d="M67.6877 86.6621H74.3514V79.9984H67.6877V86.6621Z" fill="#CA9A00"/>
<path d="M1.04761 53.3418H7.71132V46.6781H1.04761V53.3418Z" fill="#CA9A00"/>
<path d="M7.66921 66.6996V73.3633H1.00549V60.0345H14.3329V66.6996H7.66921Z" fill="#CA9A00"/>
<path d="M14.3327 60.0352H20.9964V53.3715H14.3327V60.0352Z" fill="#CA9A00"/>
<path d="M20.9979 53.3691V46.7055H34.3254V53.3691H27.6616H20.9979Z" fill="#CA9A00"/>
<path d="M27.6616 66.6992H34.3253V60.0355H27.6616V66.6992Z" fill="#CA9A00"/>
<path d="M20.9979 73.3633H27.6616V66.6996H20.9979V73.3633Z" fill="#CA9A00"/>
<path d="M34.3253 60.0352H40.989V53.3715H34.3253V60.0352Z" fill="#CA9A00"/>
<path d="M34.3253 73.3633H40.989V66.6996H34.3253V73.3633Z" fill="#CA9A00"/>
<path d="M94.3029 66.6426H100.967V59.9789H94.3029V66.6426Z" fill="#CA9A00"/>
<path d="M114.295 66.6429V73.3066H100.968V66.6429H107.632H114.295Z" fill="#CA9A00"/>
<path d="M107.632 59.9766H114.296V53.3128H107.632V59.9766Z" fill="#CA9A00"/>
<path d="M100.968 53.3145H107.632V46.6507H100.968V53.3145Z" fill="#CA9A00"/>
<path d="M114.296 66.6426H120.959V59.9789H114.296V66.6426Z" fill="#CA9A00"/>
<path d="M94.3029 20.0098H100.967V13.3461H94.3029V20.0098Z" fill="#CA9A00"/>
<path d="M107.632 13.3438H114.296V6.68006H107.632V13.3438Z" fill="#CA9A00"/>
<path d="M100.968 6.67969H107.632V0.0159671H100.968V6.67969Z" fill="#CA9A00"/>
<path d="M114.296 20.0098H120.959V13.3461H114.296V20.0098Z" fill="#CA9A00"/>
<path d="M114.296 6.67969H120.959V0.0159671H114.296V6.67969Z" fill="#CA9A00"/>
<path d="M47.6965 46.6934H54.3602V40.0296H47.6965V46.6934Z" fill="#CA9A00"/>
<path d="M47.654 33.3359V26.6722H60.9828V33.3359H54.3177H47.654Z" fill="#CA9A00"/>
<path d="M60.983 40.002H67.6467V33.3382H60.983V40.002Z" fill="#CA9A00"/>
<path d="M74.3104 33.3359H80.9741V26.6722H74.3104V33.3359Z" fill="#CA9A00"/>
<path d="M61.0238 53.3434H67.6875V66.644H61.0238V66.6722H54.4011V73.3359H47.7374V66.6722H54.3601V59.9789H47.695V53.3151H61.0238V53.3434Z" fill="#CA9A00"/>
<path d="M47.7375 20.0215H54.4012V13.3578H47.7375V20.0215Z" fill="#CA9A00"/>
<path d="M47.695 6.66602V0.000893243H61.0238V6.66602H54.3601H47.695Z" fill="#CA9A00"/>
<path d="M120.96 46.6507V53.3145H114.295V46.6507H107.673V39.9856H121.001V46.6507H120.96Z" fill="#CA9A00"/>
<path d="M114.338 33.3203H121.002V26.6566H114.338V33.3203Z" fill="#CA9A00"/>
<path d="M87.6394 40.001V40.0123H94.3864V46.6774H87.7227V46.6647H87.6803V46.6774H87.6394V53.3128H94.3031V59.9766H74.3529V53.3128H80.9757V46.6647H67.6469V40.001H80.9757V33.3358H87.6394V40.001Z" fill="#CA9A00"/>
<path d="M67.6469 73.3066H87.6253V66.6429H67.6469V73.3066Z" fill="#CA9A00"/>
<path d="M107.632 26.6735V26.6863H107.673V39.9854H102.384V40.0137H95.7205V33.35L94.3454 33.3217H87.6803V26.7018H81.018V26.6735H80.9756V20.0211H61.024V6.66548H67.6878V13.3292H80.9756V6.66548H74.3529V0.000357133H81.0166V0.0173002H87.6394V6.68101H94.3031V13.3447H87.6394V13.3574H87.6803V20.0211H87.6394V20.0381H87.6817V26.658H100.968V20.0098H114.296V26.6735H107.632Z" fill="#CA9A00"/>
</svg>
