<svg width="166" height="167" viewBox="0 0 166 167" fill="none" xmlns="http://www.w3.org/2000/svg">
<g clip-path="url(#clip0_1042_5573)">
<rect x="0.0483398" y="0.548828" width="165.677" height="165.677" fill="#F9FAFC"/>
<path d="M55.4457 1.13086H0.628906V55.9128H55.4457V1.13086ZM48.8689 49.3399H7.20568V7.7057H48.8689V49.3399Z" fill="#05AC93"/>
<path d="M14.8779 15.373H41.185V41.6685H14.8779V15.373Z" fill="#05AC93"/>
<path d="M165.079 1.13086H110.262V55.9128H165.079V1.13086ZM158.502 49.3399H116.839V7.7057H158.502V49.3399Z" fill="#05AC93"/>
<path d="M124.511 15.373H150.819V41.6685H124.511V15.373Z" fill="#05AC93"/>
<path d="M0.628906 165.497H55.4457V110.715H0.628906V165.497ZM7.20568 117.288H48.8689V158.922H7.20568V117.288Z" fill="#05AC93"/>
<path d="M14.8779 124.959H41.185V151.254H14.8779V124.959Z" fill="#05AC93"/>
<path d="M64.6082 1.21094H73.7436V10.3464H64.6082V1.21094Z" fill="#05AC93"/>
<path d="M92.0554 10.2898H101.193V1.1543H82.9199V19.4253H92.0554V10.2898Z" fill="#05AC93"/>
<path d="M73.7844 19.4258H82.9199V28.5613H73.7844V19.4258Z" fill="#05AC93"/>
<path d="M64.647 37.698V46.8335H73.7844V28.5625H64.647V37.698Z" fill="#05AC93"/>
<path d="M82.9199 37.6973H92.0554V46.8327H82.9199V37.6973Z" fill="#05AC93"/>
<path d="M92.0554 28.5625H101.191V37.698H92.0554V28.5625Z" fill="#05AC93"/>
<path d="M73.7844 46.834H82.9199V55.9695H73.7844V46.834Z" fill="#05AC93"/>
<path d="M92.0554 46.834H101.191V55.9695H92.0554V46.834Z" fill="#05AC93"/>
<path d="M0.696533 92.5156H9.83202V101.651H0.696533V92.5156Z" fill="#05AC93"/>
<path d="M9.77416 74.2019V65.0664H0.638672V83.3393H18.9096V74.2019H9.77416Z" fill="#05AC93"/>
<path d="M18.9094 83.3398H28.0449V92.4753H18.9094V83.3398Z" fill="#05AC93"/>
<path d="M28.0469 92.4766V101.612H46.3179V92.4766H37.1824H28.0469Z" fill="#05AC93"/>
<path d="M37.1824 74.2031H46.3178V83.3386H37.1824V74.2031Z" fill="#05AC93"/>
<path d="M28.0469 65.0664H37.1824V74.2019H28.0469V65.0664Z" fill="#05AC93"/>
<path d="M46.3179 83.3398H55.4534V92.4753H46.3179V83.3398Z" fill="#05AC93"/>
<path d="M46.3179 65.0664H55.4534V74.2019H46.3179V65.0664Z" fill="#05AC93"/>
<path d="M128.543 74.2812H137.679V83.4167H128.543V74.2812Z" fill="#05AC93"/>
<path d="M155.952 74.28V65.1445H137.681V74.28H146.816H155.952Z" fill="#05AC93"/>
<path d="M146.816 83.418H155.951V92.5535H146.816V83.418Z" fill="#05AC93"/>
<path d="M137.681 92.5527H146.816V101.688H137.681V92.5527Z" fill="#05AC93"/>
<path d="M155.951 74.2812H165.087V83.4167H155.951V74.2812Z" fill="#05AC93"/>
<path d="M128.543 138.211H137.679V147.346H128.543V138.211Z" fill="#05AC93"/>
<path d="M146.816 147.35H155.951V156.485H146.816V147.35Z" fill="#05AC93"/>
<path d="M137.681 156.484H146.816V165.62H137.681V156.484Z" fill="#05AC93"/>
<path d="M155.951 138.211H165.087V147.346H155.951V138.211Z" fill="#05AC93"/>
<path d="M155.951 156.484H165.087V165.62H155.951V156.484Z" fill="#05AC93"/>
<path d="M64.6489 101.629H73.7844V110.764H64.6489V101.629Z" fill="#05AC93"/>
<path d="M64.5908 119.941V129.077H82.8637V119.941H73.7263H64.5908Z" fill="#05AC93"/>
<path d="M82.8638 110.803H91.9992V119.938H82.8638V110.803Z" fill="#05AC93"/>
<path d="M101.135 119.941H110.27V129.077H101.135V119.941Z" fill="#05AC93"/>
<path d="M82.9199 92.5139H92.0553V74.2797H82.9199V74.241H73.8405V65.1055H64.705V74.241H73.7844V83.4171H64.647V92.5526H82.9199V92.5139Z" fill="#05AC93"/>
<path d="M64.7051 138.195H73.8406V147.331H64.7051V138.195Z" fill="#05AC93"/>
<path d="M64.647 156.506V165.643H82.9199V156.506H73.7844H64.647Z" fill="#05AC93"/>
<path d="M165.089 101.688V92.5527H155.951V101.688H146.872V110.826H165.145V101.688H165.089Z" fill="#05AC93"/>
<path d="M156.01 119.963H165.145V129.098H156.01V119.963Z" fill="#05AC93"/>
<path d="M119.408 110.803V110.788H128.657V101.65H119.522V101.668H119.464V101.65H119.408V92.5535H128.543V83.418H101.193V92.5535H110.272V101.668H91.9993V110.803H110.272V119.941H119.408V110.803Z" fill="#05AC93"/>
<path d="M91.9993 65.1445H119.388V74.28H91.9993V65.1445Z" fill="#05AC93"/>
<path d="M146.816 129.076V129.058H146.872V110.826H139.622V110.787H130.486V119.923L128.601 119.961H119.464V129.037H110.33V129.076H110.272V138.195H82.9199V156.505H92.0554V147.37H110.272V156.505H101.193V165.643H110.328V165.619H119.408V156.484H128.543V147.348H119.408V147.331H119.464V138.195H119.408V138.172H119.466V129.097H137.681V138.211H155.952V129.076H146.816Z" fill="#05AC93"/>
</g>
<defs>
<clipPath id="clip0_1042_5573">
<rect x="0.0483398" y="0.548828" width="165.677" height="165.677" fill="white"/>
</clipPath>
</defs>
</svg>
